<?xml version="1.0" encoding="UTF-8"?><svg id="a" xmlns="http://www.w3.org/2000/svg" xmlns:xlink="http://www.w3.org/1999/xlink" viewBox="0 0 300 300"><defs><style>.k{fill:url(#c);}.l{fill:#455f71;}.m{fill:url(#f);}.n{fill:url(#g);}.o{fill:url(#b);}.p{fill:url(#i);}.q{fill:url(#h);}.r{fill:url(#d);}.s{fill:url(#e);}.t{fill:url(#j);}</style><linearGradient id="b" x1="63.99" y1="150" x2="78.04" y2="150" gradientTransform="matrix(1, 0, 0, 1, 0, 0)" gradientUnits="userSpaceOnUse"><stop offset="0" stop-color="#486274"/><stop offset="1" stop-color="#728ca0"/></linearGradient><linearGradient id="c" x1="125.78" y1="128.93" x2="145.83" y2="128.93" xlink:href="#b"/><linearGradient id="d" x1="221.11" x2="236.01" xlink:href="#b"/><linearGradient id="e" x1="90.04" x2="96.42" xlink:href="#b"/><linearGradient id="f" x1="108.04" y1="128.93" x2="114.42" y2="128.93" xlink:href="#b"/><linearGradient id="g" x1="155.66" y1="128.93" x2="162.04" y2="128.93" xlink:href="#b"/><linearGradient id="h" x1="197.03" y1="128.93" x2="203.41" y2="128.93" xlink:href="#b"/><linearGradient id="i" x1="172.51" y1="128.93" x2="186.56" y2="128.93" xlink:href="#b"/><linearGradient id="j" x1="208.77" y1="128.93" x2="215.16" y2="128.93" xlink:href="#b"/></defs><rect class="o" x="63.99" y="83.26" width="14.04" height="133.48" rx="7.02" ry="7.02"/><rect class="k" x="125.78" y="83.26" width="20.04" height="91.35" rx="10.02" ry="10.02"/><path class="r" d="M228.56,83.26h0c-4.11,0-7.45,3.33-7.45,7.45v118.59c0,4.11,3.33,7.45,7.45,7.45h0c4.11,0,7.45-3.33,7.45-7.45V90.71c0-4.11-3.33-7.45-7.45-7.45Z"/><path class="s" d="M93.23,83.26c-1.76,0-3.19,1.43-3.19,3.19v127.1c0,1.76,1.43,3.19,3.19,3.19s3.19-1.43,3.19-3.19V86.45c0-1.76-1.43-3.19-3.19-3.19Z"/><path class="m" d="M111.23,83.26c-1.76,0-3.19,1.43-3.19,3.19v84.97c0,1.76,1.43,3.19,3.19,3.19s3.19-1.43,3.19-3.19V86.45c0-1.76-1.43-3.19-3.19-3.19Z"/><path class="n" d="M158.85,83.26c-1.76,0-3.19,1.43-3.19,3.19v84.97c0,1.76,1.43,3.19,3.19,3.19s3.19-1.43,3.19-3.19V86.45c0-1.76-1.43-3.19-3.19-3.19Z"/><path class="q" d="M200.22,83.26c-1.76,0-3.19,1.43-3.19,3.19v84.97c0,1.76,1.43,3.19,3.19,3.19s3.19-1.43,3.19-3.19V86.45c0-1.76-1.43-3.19-3.19-3.19Z"/><path class="p" d="M186.56,167.59V90.28c0-3.88-3.14-7.02-7.02-7.02s-7.02,3.14-7.02,7.02v77.31c0,3.88,3.14,7.02,7.02,7.02s7.02-3.14,7.02-7.02Z"/><path class="t" d="M211.96,83.26c-1.76,0-3.19,1.43-3.19,3.19v84.97c0,1.76,1.43,3.19,3.19,3.19s3.19-1.43,3.19-3.19V86.45c0-1.76-1.43-3.19-3.19-3.19Z"/><path class="l" d="M111.23,181.18c-1.76,0-3.19,1.43-3.19,3.19v29.17c0,1.76,1.43,3.19,3.19,3.19s3.19-1.43,3.19-3.19v-29.17c0-1.76-1.43-3.19-3.19-3.19Z"/><path class="l" d="M197.49,187.57c1.76,0,3.19-1.43,3.19-3.19s-1.43-3.19-3.19-3.19h-17.96c-1.76,0-3.19,1.43-3.19,3.19v29.17h0c0,1.76,1.43,3.19,3.19,3.19h17.96c1.76,0,3.19-1.43,3.19-3.19h0c0-1.76-1.43-3.19-3.19-3.19h-14.77v-9.83h11.11c1.76,0,3.19-1.43,3.19-3.19s-1.43-3.19-3.19-3.19h-11.11v-6.58h14.77Z"/><path class="l" d="M211.96,181.18c-1.76,0-3.19,1.43-3.19,3.19v29.17c0,1.76,1.43,3.19,3.19,3.19s3.19-1.43,3.19-3.19v-29.17c0-1.76-1.43-3.19-3.19-3.19Z"/><path class="l" d="M158.53,181.18c-1.77,0-3.39,.97-4.23,2.53l-10.28,19.17c-.05,.08-.17,.08-.21,0l-10.28-19.17c-.84-1.56-2.46-2.53-4.23-2.53-1.94,0-3.51,1.57-3.51,3.51v28.85c0,1.76,1.43,3.19,3.19,3.19s3.19-1.43,3.19-3.19v-20.82l7.3,13.13c.9,1.62,2.61,2.63,4.47,2.63s3.57-1.01,4.47-2.64l7.25-13.12v20.82c0,1.76,1.43,3.19,3.19,3.19s3.19-1.43,3.19-3.19v-28.85c0-1.94-1.57-3.51-3.51-3.51Z"/></svg>