<?xml version="1.0" encoding="UTF-8" standalone="no"?>
<!-- Created with Inkscape (http://www.inkscape.org/) -->

<svg
   width="72.407448mm"
   height="28.279648mm"
   viewBox="0 0 72.407448 28.279648"
   version="1.1"
   id="svg5"
   xmlns="http://www.w3.org/2000/svg"
   xmlns:svg="http://www.w3.org/2000/svg">
  <defs
     id="defs2">
    <linearGradient
       x1="0"
       y1="0"
       x2="1"
       y2="0"
       gradientUnits="userSpaceOnUse"
       gradientTransform="matrix(-549.8432,-553.63062,-553.63062,549.8432,587.83734,1147.6403)"
       spreadMethod="pad"
       id="linearGradient850">
      <stop
         style="stop-opacity:1;stop-color:#0a649d"
         offset="0"
         id="stop844" />
      <stop
         style="stop-opacity:1;stop-color:#007aae"
         offset="0.349462"
         id="stop846" />
      <stop
         style="stop-opacity:1;stop-color:#007d3b"
         offset="1"
         id="stop848" />
    </linearGradient>
    <clipPath
       clipPathUnits="userSpaceOnUse"
       id="clipPath860">
      <path
         d="M 0,841.89 H 595.276 V 0 H 0 Z"
         id="path858" />
    </clipPath>
    <linearGradient
       x1="0"
       y1="0"
       x2="1"
       y2="0"
       gradientUnits="userSpaceOnUse"
       gradientTransform="matrix(-47.357143,-47.357143,-47.357143,47.357143,97.156631,618.37921)"
       spreadMethod="pad"
       id="linearGradient916">
      <stop
         style="stop-opacity:1;stop-color:#0a649d"
         offset="0"
         id="stop910" />
      <stop
         style="stop-opacity:1;stop-color:#007aae"
         offset="0.349462"
         id="stop912" />
      <stop
         style="stop-opacity:1;stop-color:#007d3b"
         offset="1"
         id="stop914" />
    </linearGradient>
    <linearGradient
       x1="0"
       y1="0"
       x2="1"
       y2="0"
       gradientUnits="userSpaceOnUse"
       gradientTransform="matrix(-51.250496,-51.250496,-51.250496,51.250496,100.1637,375.27399)"
       spreadMethod="pad"
       id="linearGradient938">
      <stop
         style="stop-opacity:1;stop-color:#0a649d"
         offset="0"
         id="stop932" />
      <stop
         style="stop-opacity:1;stop-color:#007aae"
         offset="0.349462"
         id="stop934" />
      <stop
         style="stop-opacity:1;stop-color:#007d3b"
         offset="1"
         id="stop936" />
    </linearGradient>
    <clipPath
       clipPathUnits="userSpaceOnUse"
       id="clipPath952">
      <path
         d="M 0,841.89 H 595.276 V 0 H 0 Z"
         id="path950" />
    </clipPath>
    <clipPath
       clipPathUnits="userSpaceOnUse"
       id="clipPath1042">
      <path
         d="M 0,841.89 H 595.276 V 0 H 0 Z"
         id="path1040" />
    </clipPath>
    <linearGradient
       x1="0"
       y1="0"
       x2="1"
       y2="0"
       gradientUnits="userSpaceOnUse"
       gradientTransform="matrix(63.992187,0,0,-63.992187,46.200035,743.034)"
       spreadMethod="pad"
       id="linearGradient1082">
      <stop
         style="stop-opacity:1;stop-color:#0a649d"
         offset="0"
         id="stop1076" />
      <stop
         style="stop-opacity:1;stop-color:#007aae"
         offset="0.349462"
         id="stop1078" />
      <stop
         style="stop-opacity:1;stop-color:#007d3b"
         offset="1"
         id="stop1080" />
    </linearGradient>
  </defs>
  <g
     id="layer1"
     transform="translate(-33.123303,-31.247329)">
    <g
       id="g830"
       transform="matrix(0.35277777,0,0,-0.35277777,32.006298,347.89292)">
      <g
         id="g946"
         transform="matrix(3.0617957,0,0,3.0617957,-148.64174,-1526.1659)">
        <g
           id="g948"
           clip-path="url(#clipPath952)">
          <g
             id="g1630"
             transform="matrix(1.2290427,0,0,1.2290427,-11.356251,-181.31215)">
            <g
               id="g962"
               transform="translate(70.7432,776.0699)">
              <path
                 d="m 0,0 c -1.015,-1.121 -2.26,-2.14 -3.708,-2.975 -5.617,-3.243 -12.107,-2.517 -14.497,1.622 -2.39,4.139 0.227,10.123 5.844,13.366 5.226,3.017 11.208,2.597 13.939,-0.811 H 2.72 c -0.045,0.085 -0.088,0.171 -0.136,0.255 -2.673,4.63 -9.935,5.442 -16.218,1.814 -6.284,-3.627 -9.211,-10.322 -6.538,-14.953 2.673,-4.63 9.934,-5.442 16.218,-1.814 1.691,0.976 3.137,2.176 4.297,3.496 z"
                 style="fill:#0a5ba9;fill-opacity:1;fill-rule:evenodd;stroke:none"
                 id="path964" />
            </g>
            <g
               id="g966"
               transform="translate(65.3994,781.295)">
              <path
                 d="M 0,0 V 3.203 L -1.79,0 Z m -2.656,-1.539 -1.026,-1.8 H -6.36 l 4.126,6.883 c 0.235,0.388 0.465,0.689 0.689,0.906 0.224,0.217 0.431,0.377 0.621,0.484 0.19,0.106 0.353,0.171 0.49,0.194 0.137,0.023 0.232,0.034 0.286,0.034 h 2.461 v -8.501 h -2.359 v 1.8 z"
                 style="fill:#0a5ba9;fill-opacity:1;fill-rule:nonzero;stroke:none"
                 id="path968" />
            </g>
            <g
               id="g970"
               transform="translate(70.7715,779.1818)">
              <path
                 d="m 0,0 c -0.056,0 -0.094,0.003 -0.12,0.006 0.005,0.024 0.013,0.057 0.029,0.104 L 1.292,4.183 H 0.032 L -1.29,0.288 c -0.167,-0.491 -0.154,-0.861 0.04,-1.13 0.248,-0.346 0.701,-0.387 1.021,-0.387 h 1.7 L 1.888,0 Z"
                 style="fill:#0a5ba9;fill-opacity:1;fill-rule:nonzero;stroke:none"
                 id="path972" />
            </g>
            <g
               id="g974"
               transform="translate(74.603,779.1818)">
              <path
                 d="m 0,0 c -0.056,0 -0.094,0.003 -0.119,0.006 0.004,0.023 0.013,0.057 0.028,0.104 L 1.292,4.183 H 0.033 L -1.29,0.288 c -0.166,-0.491 -0.153,-0.861 0.04,-1.13 0.248,-0.346 0.702,-0.387 1.021,-0.387 h 1.7 L 1.888,0 Z"
                 style="fill:#0a5ba9;fill-opacity:1;fill-rule:nonzero;stroke:none"
                 id="path976" />
            </g>
            <g
               id="g978"
               transform="translate(82.4102,783.3624)">
              <path
                 d="M 0,0 -1.109,-3.237 -1.635,-0.125 -3.944,-3.375 -3.103,0 h -1.203 l -1.351,-5.381 0.915,0.046 c 0.03,0.004 0.744,0.103 1.27,0.817 0.058,0.079 0.618,0.727 1.103,1.287 0.105,-0.367 0.243,-0.865 0.316,-1.212 0.203,-0.793 0.914,-1.051 1.261,-1.076 L -0.576,-5.535 1.231,0 Z"
                 style="fill:#0a5ba9;fill-opacity:1;fill-rule:nonzero;stroke:none"
                 id="path980" />
            </g>
            <g
               id="g982"
               transform="translate(85.1685,783.2999)">
              <path
                 d="m 0,0 -1.818,-5.353 h 1.259 L 1.258,0 Z"
                 style="fill:#0a5ba9;fill-opacity:1;fill-rule:nonzero;stroke:none"
                 id="path984" />
            </g>
            <g
               id="g986"
               transform="translate(93.5127,783.3903)">
              <path
                 d="m 0,0 -0.11,-0.323 c -0.214,-0.631 -0.429,-1.261 -0.646,-1.892 -0.075,-0.22 -0.149,-0.439 -0.224,-0.659 l -0.52,1.805 c -0.022,0.152 -0.084,0.353 -0.194,0.539 v 0.001 l -0.001,0.001 C -1.862,-0.248 -2.142,0 -2.58,0 h -0.198 l -0.063,-0.187 c -0.006,-0.015 -0.085,-0.249 -0.206,-0.605 -0.161,-0.475 -0.323,-0.949 -0.486,-1.423 -0.075,-0.22 -0.15,-0.439 -0.225,-0.659 l -0.519,1.805 C -4.334,-0.687 -4.627,0 -5.357,0 h -0.198 l -0.064,-0.187 c -0.023,-0.068 -1.634,-4.814 -1.634,-4.814 l -0.125,-0.365 h 1.266 l 0.103,0.304 c 0.207,0.608 0.413,1.221 0.619,1.833 0.068,0.202 0.137,0.405 0.205,0.607 0.239,-0.799 0.485,-1.644 0.506,-1.785 0.034,-0.232 0.111,-0.416 0.215,-0.559 l -10e-4,-10e-4 h 10e-4 c 0.221,-0.306 0.563,-0.427 0.873,-0.427 0.045,0 0.07,0.003 0.07,0.003 l 0.179,0.019 0.003,0.007 0.005,-10e-4 0.103,0.304 c 0.207,0.608 0.413,1.221 0.619,1.833 0.021,0.063 0.042,0.126 0.064,0.189 l 0.141,0.416 c 0.239,-0.798 0.485,-1.642 0.506,-1.783 0.107,-0.727 0.631,-0.987 1.087,-0.987 0.045,0 0.071,0.003 0.071,0.003 l 0.179,0.019 1.828,5.375 z"
                 style="fill:#0a5ba9;fill-opacity:1;fill-rule:nonzero;stroke:none"
                 id="path988" />
            </g>
            <g
               id="g990"
               transform="translate(96.769,781.7062)">
              <path
                 d="M 0,0 C 0.063,0.131 0.14,0.231 0.231,0.3 0.315,0.364 0.414,0.397 0.516,0.397 L 2.27,0.398 2.685,1.619 0.745,1.625 C 0.318,1.625 -0.093,1.485 -0.442,1.221 -0.82,0.934 -1.104,0.517 -1.26,0.021 l -0.746,-2.195 c -0.199,-0.634 -0.057,-1.015 0.096,-1.224 0.138,-0.189 0.417,-0.415 0.957,-0.415 h 1.796 l 0.413,1.224 -1.98,0.005 c -0.067,0 -0.097,0.013 -0.101,0.017 -0.005,0.007 -0.016,0.047 -0.002,0.128 0.006,0.028 0.014,0.057 0.028,0.108 l 0.23,0.679 h 2.146 l 0.417,1.228 h -2.146 l 0.093,0.273 C -0.042,-0.097 -0.021,-0.046 0,0"
                 style="fill:#0a5ba9;fill-opacity:1;fill-rule:nonzero;stroke:none"
                 id="path992" />
            </g>
            <g
               id="g994"
               transform="translate(102.8135,781.6417)">
              <path
                 d="m 0,0 c -0.075,-0.223 -0.223,-0.408 -0.384,-0.485 -0.22,-0.102 -0.54,-0.116 -0.793,-0.116 -0.066,0 -0.135,0.002 -0.206,0.003 l 0.357,1.051 c 0.152,0.009 0.299,0.015 0.439,0.015 0.342,0 0.51,-0.044 0.583,-0.073 C 0.028,0.336 0.059,0.171 0,0 M 0.831,1.447 C 0.556,1.617 0.179,1.696 -0.358,1.696 -0.57,1.696 -0.814,1.684 -1.047,1.67 L -1.356,1.651 h -0.523 l -1.824,-5.373 h 1.259 l 0.645,1.899 c 0.133,-0.006 0.266,-0.012 0.402,-0.012 l 0.548,-1.913 h 1.522 l -0.769,2.145 c 0.028,0.012 0.056,0.023 0.086,0.036 0.541,0.274 1.015,0.818 1.21,1.389 0.236,0.697 0.087,1.35 -0.369,1.625"
                 style="fill:#0a5ba9;fill-opacity:1;fill-rule:nonzero;stroke:none"
                 id="path996" />
            </g>
          </g>
        </g>
      </g>
    </g>
  </g>
</svg>
