<?xml version="1.0" encoding="utf-8"?>
<!-- Generator: Adobe Illustrator 14.0.0, SVG Export Plug-In . SVG Version: 6.00 Build 43363)  -->
<!DOCTYPE svg PUBLIC "-//W3C//DTD SVG 1.1//EN" "http://www.w3.org/Graphics/SVG/1.1/DTD/svg11.dtd">
<svg version="1.1" id="Ebene_1" xmlns="http://www.w3.org/2000/svg" xmlns:xlink="http://www.w3.org/1999/xlink" x="0px" y="0px"
	 width="708.66px" height="141.73px" viewBox="0 0 708.66 141.73" enable-background="new 0 0 708.66 141.73" xml:space="preserve">
<g>
	<polygon fill="#2D64A8" points="681.55,104.97 681.55,106.05 658.75,106.05 628.28,72.61 628.28,70.12 660.67,35.25 680.59,35.25 
		680.59,37.17 649.271,70.62 	"/>
	<path fill="#2D64A8" d="M628.28,70.12v2.49l-0.012,33.438h-18.96v-70.8c6.32,0,12.642,0,18.96,0L628.28,70.12z"/>
</g>
<g>
	<path fill="#2D64A8" d="M528.611,54.897c0,17.04,0,34.081,0,51.121c21.561,0,43.12,0,64.681,0l6.479-13.682
		c-17.44-0.277-35.397-0.041-53.038-0.12c0-12.813,0-23.845,0-33.358c0,0-0.459-9.768,8.76-9.84c11.719-0.095,24.56,0,36.84,0
		l6.6-13.801c-0.64,0-1.278,0-1.92,0c-14.56,0-29.119,0-43.68,0C528.611,35.217,528.611,54.897,528.611,54.897"/>
	<polygon fill="#0B72B5" points="590.412,76.497 549.492,76.497 557.172,61.737 597.012,61.737 	"/>
</g>
<path fill="#2D64A8" d="M518.948,50.011c-7.92,0-15.84,0-23.76,0l-0.021,56.041H475.25l0.019-56.041c-9.521,0-19.039,0-28.56,0
	l6.72-14.761c24.079,0,48.16,0,72.24,0L518.948,50.011z"/>
<path fill="#EA671F" d="M418.27,50.131c-0.535-0.006-1.131,0.067-1.848-0.006l-35.232,55.928c-7.92,0-15.84,0-23.76,0
	c0-0.36,0-0.722,0-1.08l46.56-69.721c11.079,0,22.16,0,33.24,0v70.801c-6.641,0-12.32,0-18.96,0"/>
<path fill="#EA671F" d="M334.628,35.251c6,0,12,0,18,0c0,23.601,0,47.2,0,70.8c-6.28-0.079-12.88,0.159-18.96-0.119
	c0-21.28,0.001-44.39,0-66.12C333.668,38.081,333.159,34.564,334.628,35.251z"/>
<path fill="#EA671F" d="M320.349,59.817v20.64c0,0,0,25.562-23.76,25.562c-12.338,0-51.36,0-51.36,0c0-23.602,0-47.2,0-70.8
	c0,0,39.271-0.039,51.35-0.015C320.349,35.251,320.349,59.817,320.349,59.817z M288.068,49.137c-7.443,0.007-16.52-0.04-24.72-0.12
	v43.199c7.24,0,15.151,0.034,21.72,0c17.432-0.092,16.32-15,16.32-15c0-4.8,0-9.6,0-14.398
	C301.389,62.817,301.5,49.125,288.068,49.137z"/>
<g>
	<path fill="#EA671F" d="M161.588,54.931c0,17.04,0,34.081,0,51.121c21.561,0,43.12,0,64.68,0l6.48-13.682
		c-17.441-0.277-35.399-0.041-53.04-0.12c0-12.813,0-23.845,0-33.358c0,0-0.458-9.768,8.76-9.84c11.719-0.095,24.56,0,36.84,0
		l6.6-13.801c-0.64,0-1.28,0-1.92,0c-14.56,0-29.12,0-43.68,0C161.588,35.251,161.588,54.931,161.588,54.931"/>
	<polygon fill="#EA671F" points="223.389,76.531 182.468,76.531 190.148,61.771 229.988,61.771 	"/>
</g>
<path fill="#EA671F" d="M63.662,35.455c10.16,0,20.32,0,30.48,0v49.199c0.28,0,0.56,0,0.84,0l20.04-49.199c9.841,0,20.54,0,30.38,0
	l-0.02,70.8c-6,0-12,0-18,0c0-18.319,0-36.641,0-54.96c-0.363-0.276-1.238-0.043-1.801-0.121l-21.959,55.081
	c-8.88,0-17.76,0-26.64,0c0-17.96,0-35.921,0-53.88c0-0.399,0-0.801,0-1.201c-0.28,0-0.56,0-0.84,0l-26.76,55.081
	c-6.92-0.08-14.16,0.159-20.88-0.119L63.662,35.455z"/>
</svg>
